<?xml version="1.0" encoding="UTF-8"?>
<svg width="550px" height="283px" viewBox="0 0 550 283" version="1.1" xmlns="http://www.w3.org/2000/svg" xmlns:xlink="http://www.w3.org/1999/xlink">
    <!-- Generator: Sketch 51.1 (57501) - http://www.bohemiancoding.com/sketch -->
    <title>Group 4</title>
    <desc>Created with Sketch.</desc>
    <defs></defs>
    <g id="Page-1" stroke="none" stroke-width="1" fill="none" fill-rule="evenodd">
        <g id="Group-4" transform="translate(0.000000, -33.000000)" fill="#FFFFFF">
            <text id="anteen" font-family="Apple-Chancery, Apple Chancery" font-size="144" font-weight="normal">
                <tspan x="160" y="209">anteen</tspan>
            </text>
            <path d="M337.201993,135.84694 C318.286405,87.8702153 271.518855,53.9205557 216.821936,53.9205557 C145.383962,53.9205557 87.4720421,111.832476 87.4720421,183.27045 C87.4720421,254.708424 145.383962,312.620344 216.821936,312.620344 C224.846476,312.620344 232.700347,311.889626 240.320641,310.491099 C228.114973,313.943117 215.235517,315.790304 201.924627,315.790304 C124.16714,315.790304 61.132242,252.755406 61.132242,174.997919 C61.132242,97.2404321 124.16714,34.2055343 201.924627,34.2055343 C266.096468,34.2055343 320.240899,77.1379787 337.201993,135.84694 Z" id="Combined-Shape" fill-rule="nonzero" transform="translate(199.167118, 174.997919) rotate(-17.000000) translate(-199.167118, -174.997919) "></path>
            <path d="M28.9171158,139.994144 C26.2172022,174.872738 24.8672454,193.290526 24.8672454,195.247507 C24.8672454,201.066951 35.2171291,276 17.6109729,276 C0.00481658348,276 13.5889107,204.620416 13.5889107,195.247507 C13.5889107,192.947196 14.0266543,174.529408 14.9021415,139.994144 C6.48768136,127.534621 1.61038848,116.498815 0.270262837,106.886726 C-1.73992562,92.468593 7.5627154,66 24.8672454,66 C42.1717754,66 50.9416413,96.2407953 46.1044272,109.349107 C42.8796178,118.087982 37.150514,128.302994 28.9171158,139.994144 Z" id="t"></path>
        </g>
    </g>
</svg>