<?xml version="1.0" encoding="UTF-8"?>
<svg width="364px" height="283px" viewBox="0 0 364 283" version="1.1" xmlns="http://www.w3.org/2000/svg" xmlns:xlink="http://www.w3.org/1999/xlink">
    <!-- Generator: Sketch 51.1 (57501) - http://www.bohemiancoding.com/sketch -->
    <title>Group 5</title>
    <desc>Created with Sketch.</desc>
    <defs></defs>
    <g id="Page-1" stroke="none" stroke-width="1" fill="none" fill-rule="evenodd">
        <g id="Group-5" transform="translate(0.000000, -33.000000)" fill="#FFFFFF">
            <path d="M178.664062,148.789062 C173.367161,157.507856 167.543001,164.644503 161.191406,170.199219 C154.839812,175.753934 149.320336,178.53125 144.632812,178.53125 C138.210905,178.53125 135,173.351614 135,162.992188 C135,148.742116 139.675734,136.402396 149.027344,125.972656 C158.378953,115.542917 169.453061,110.328125 182.25,110.328125 C187.125024,110.328125 191.27342,110.937494 194.695312,112.15625 C194.460936,113.000004 194.320313,113.515624 194.273438,113.703125 L193.429688,117.429688 C192.867185,120.007825 192.5625,121.50781 192.515625,121.929688 L188.015625,153.007812 L187.382812,157.507812 C186.773434,161.96096 186.46875,164.937492 186.46875,166.4375 C186.46875,168.453135 187.054682,169.460938 188.226562,169.460938 C192.164082,169.460938 196.195292,165.054732 200.320312,156.242188 C201.585944,156.992191 202.21875,157.742184 202.21875,158.492188 C202.21875,160.132821 200.203145,163.437475 196.171875,168.40625 C190.687473,175.156284 185.601586,178.53125 180.914062,178.53125 C177.49217,178.53125 175.78125,176.234398 175.78125,171.640625 C175.78125,170.234368 175.945311,168.289075 176.273438,165.804688 L176.976562,160.179688 L177.890625,153.992188 L178.664062,148.789062 Z M182.671875,120.875 C178.406229,118.484363 174.093772,117.289062 169.734375,117.289062 C163.171842,117.289062 157.664085,121.296835 153.210938,129.3125 C148.75779,137.328165 146.53125,147.265566 146.53125,159.125 C146.53125,165.21878 148.335919,168.265625 151.945312,168.265625 C156.117208,168.265625 161.15622,165.078157 167.0625,158.703125 C175.03129,150.124957 179.859367,140.046933 181.546875,128.46875 L182.671875,120.875 Z M227.8125,174.242188 L217.335938,178.53125 L217.546875,176.5625 L218.109375,171.359375 L218.671875,166.4375 L222.328125,133.8125 L222.75,130.085938 C223.031251,127.179673 223.171875,124.835946 223.171875,123.054688 C223.171875,120.054673 222.421883,118.554688 220.921875,118.554688 C217.406232,118.554688 213.632833,122.539023 209.601562,130.507812 C208.523432,129.617183 207.984375,128.843753 207.984375,128.1875 C207.984375,125.374986 210.550756,121.542993 215.683594,116.691406 C220.816432,111.839819 224.85936,109.414062 227.8125,109.414062 C231.84377,109.414062 233.859375,111.992162 233.859375,117.148438 C233.859375,118.460944 233.742189,120.218739 233.507812,122.421875 L232.945312,128.117188 L232.382812,132.898438 L231.820312,137.890625 C237.35159,129.640584 243.410123,122.832058 249.996094,117.464844 C256.582064,112.097629 262.195289,109.414062 266.835938,109.414062 C271.382835,109.414062 273.65625,112.578093 273.65625,118.90625 C273.65625,120.828135 273.39844,123.710918 272.882812,127.554688 L269.085938,153.78125 C268.335934,159.031276 267.960938,163.179672 267.960938,166.226562 C267.960938,168.664075 268.617181,169.882812 269.929688,169.882812 C273.164079,169.882812 277.148414,165.570356 281.882812,156.945312 C283.007818,157.648441 283.570312,158.374996 283.570312,159.125 C283.570312,162.17189 280.957057,166.167944 275.730469,171.113281 C270.50388,176.058618 266.250016,178.53125 262.96875,178.53125 C259.312482,178.53125 257.484375,175.906276 257.484375,170.65625 C257.484375,166.812481 257.976558,161.492221 258.960938,154.695312 L261.421875,137.679688 C262.218754,132.14841 262.617188,127.765641 262.617188,124.53125 C262.617188,120.828106 261.328138,118.976562 258.75,118.976562 C252.74997,118.976562 246.668,123.042928 240.503906,131.175781 C234.339813,139.308634 230.742193,148.039016 229.710938,157.367188 L227.8125,174.242188 Z M312.1875,119.398438 L308.671875,150.476562 C308.062497,156.054715 307.757812,160.179674 307.757812,162.851562 C307.757812,168.148464 309.562482,170.796875 313.171875,170.796875 C317.062519,170.796875 321.093729,167.609407 325.265625,161.234375 C325.968754,162.125004 326.320312,162.921871 326.320312,163.625 C326.320312,166.250013 324.011742,169.390607 319.394531,173.046875 C314.777321,176.703143 310.804704,178.53125 307.476562,178.53125 C300.820279,178.53125 297.492188,174.265668 297.492188,165.734375 C297.492188,162.593734 297.890621,157.507848 298.6875,150.476562 L302.132812,119.398438 L287.296875,119.398438 L295.523438,111.242188 L303.046875,111.242188 L304.523438,98.4453125 L314.859375,95 L313.101562,111.242188 L342.914062,111.242188 L334.6875,119.398438 L312.1875,119.398438 Z M224.679688,240.34375 C225.851568,241.140629 226.4375,242.07812 226.4375,243.15625 C226.4375,244.609382 224.937515,247.093732 221.9375,250.609375 C213.921835,259.890671 206.000039,264.53125 198.171875,264.53125 C193.390601,264.53125 189.45314,262.632831 186.359375,258.835937 C183.26561,255.039044 181.71875,250.18753 181.71875,244.28125 C181.71875,233.593697 185.761678,222.777398 193.847656,211.832031 C201.933634,200.886664 209.93746,195.414062 217.859375,195.414062 C223.578154,195.414062 226.4375,198.484344 226.4375,204.625 C226.4375,211.515659 223.09769,218.242155 216.417969,224.804687 C209.738248,231.36722 201.593798,235.937487 191.984375,238.515625 C192.92188,249.812556 197.37496,255.460937 205.34375,255.460937 C213.218789,255.460937 219.664037,250.421925 224.679688,240.34375 Z M192.265625,229.9375 C193.625007,230.406252 194.867182,230.640625 195.992188,230.640625 C201.804717,230.640625 206.890603,228.859393 211.25,225.296875 C215.609397,221.734357 217.789062,217.562524 217.789062,212.78125 C217.789062,207.296848 215.000028,204.554687 209.421875,204.554687 C205.390605,204.554687 201.74611,206.957007 198.488281,211.761719 C195.230452,216.56643 193.156254,222.624963 192.265625,229.9375 Z M278.1875,240.34375 C279.359381,241.140629 279.945312,242.07812 279.945312,243.15625 C279.945312,244.609382 278.445328,247.093732 275.445312,250.609375 C267.429647,259.890671 259.507852,264.53125 251.679688,264.53125 C246.898414,264.53125 242.960953,262.632831 239.867188,258.835937 C236.773422,255.039044 235.226562,250.18753 235.226562,244.28125 C235.226562,233.593697 239.269491,222.777398 247.355469,211.832031 C255.441447,200.886664 263.445273,195.414062 271.367188,195.414062 C277.085966,195.414062 279.945312,198.484344 279.945312,204.625 C279.945312,211.515659 276.605502,218.242155 269.925781,224.804687 C263.24606,231.36722 255.101611,235.937487 245.492188,238.515625 C246.429692,249.812556 250.882773,255.460937 258.851562,255.460937 C266.726602,255.460937 273.17185,250.421925 278.1875,240.34375 Z M245.773438,229.9375 C247.132819,230.406252 248.374994,230.640625 249.5,230.640625 C255.312529,230.640625 260.398416,228.859393 264.757812,225.296875 C269.117209,221.734357 271.296875,217.562524 271.296875,212.78125 C271.296875,207.296848 268.50784,204.554687 262.929688,204.554687 C258.898417,204.554687 255.253923,206.957007 251.996094,211.761719 C248.738265,216.56643 246.664067,222.624963 245.773438,229.9375 Z M307.929688,260.242187 L297.453125,264.53125 L297.664062,262.5625 L298.226562,257.359375 L298.789062,252.4375 L302.445312,219.8125 L302.867188,216.085937 C303.148439,213.179673 303.289062,210.835946 303.289062,209.054687 C303.289062,206.054673 302.53907,204.554687 301.039062,204.554687 C297.52342,204.554687 293.75002,208.539023 289.71875,216.507812 C288.64062,215.617183 288.101562,214.843753 288.101562,214.1875 C288.101562,211.374986 290.667943,207.542993 295.800781,202.691406 C300.933619,197.839819 304.976548,195.414062 307.929688,195.414062 C311.960958,195.414062 313.976562,197.992162 313.976562,203.148437 C313.976562,204.460944 313.859376,206.218739 313.625,208.421875 L313.0625,214.117187 L312.5,218.898437 L311.9375,223.890625 C317.468778,215.640584 323.527311,208.832058 330.113281,203.464844 C336.699252,198.097629 342.312477,195.414062 346.953125,195.414062 C351.500023,195.414062 353.773438,198.578093 353.773438,204.90625 C353.773438,206.828135 353.515628,209.710918 353,213.554687 L349.203125,239.78125 C348.453121,245.031276 348.078125,249.179672 348.078125,252.226562 C348.078125,254.664075 348.734368,255.882812 350.046875,255.882812 C353.281266,255.882812 357.265601,251.570356 362,242.945312 C363.125006,243.648441 363.6875,244.374996 363.6875,245.125 C363.6875,248.17189 361.074245,252.167944 355.847656,257.113281 C350.621068,262.058618 346.367204,264.53125 343.085938,264.53125 C339.429669,264.53125 337.601562,261.906276 337.601562,256.65625 C337.601562,252.812481 338.093745,247.492221 339.078125,240.695312 L341.539062,223.679687 C342.335941,218.14841 342.734375,213.765641 342.734375,210.53125 C342.734375,206.828106 341.445325,204.976562 338.867188,204.976562 C332.867158,204.976562 326.785187,209.042928 320.621094,217.175781 C314.457,225.308634 310.85938,234.039016 309.828125,243.367187 L307.929688,260.242187 Z" id="anteen"></path>
            <path d="M350.201993,135.84694 C331.286405,87.8702153 284.518855,53.9205557 229.821936,53.9205557 C158.383962,53.9205557 100.472042,111.832476 100.472042,183.27045 C100.472042,254.708424 158.383962,312.620344 229.821936,312.620344 C237.846476,312.620344 245.700347,311.889626 253.320641,310.491099 C241.114973,313.943117 228.235517,315.790304 214.924627,315.790304 C137.16714,315.790304 74.132242,252.755406 74.132242,174.997919 C74.132242,97.2404321 137.16714,34.2055343 214.924627,34.2055343 C279.096468,34.2055343 333.240899,77.1379787 350.201993,135.84694 Z" id="Combined-Shape" fill-rule="nonzero" transform="translate(212.167118, 174.997919) rotate(-17.000000) translate(-212.167118, -174.997919) "></path>
            <path d="M28.9171158,128.994144 C26.2172022,163.872738 24.8672454,182.290526 24.8672454,184.247507 C24.8672454,190.066951 35.2171291,265 17.6109729,265 C0.00481658348,265 13.5889107,193.620416 13.5889107,184.247507 C13.5889107,181.947196 14.0266543,163.529408 14.9021415,128.994144 C6.48768136,116.534621 1.61038848,105.498815 0.270262837,95.8867264 C-1.73992562,81.468593 7.5627154,55 24.8672454,55 C42.1717754,55 50.9416413,85.2407953 46.1044272,98.3491072 C42.8796178,107.087982 37.150514,117.302994 28.9171158,128.994144 Z" id="t"></path>
        </g>
    </g>
</svg>